<?xml version="1.0" encoding="utf-8"?>
<!-- Generator: Adobe Illustrator 25.0.0, SVG Export Plug-In . SVG Version: 6.00 Build 0)  -->
<svg version="1.1" id="Livello_1" xmlns="http://www.w3.org/2000/svg" xmlns:xlink="http://www.w3.org/1999/xlink" x="0px" y="0px"
	 viewBox="0 0 30 30" style="enable-background:new 0 0 30 30;" xml:space="preserve">
<style type="text/css">
	.st0{fill:#010101;}
</style>
<g id="Livello_2_1_">
	<g id="Livello_1-2">
		<path class="st0" d="M8.6,15c0,3.5,2.9,6.4,6.4,6.4c3.5,0,6.4-2.9,6.4-6.4S18.6,8.6,15,8.6c0,0,0,0,0,0c-0.3,0-0.5-0.2-0.5-0.5
			c0,0,0,0,0,0c0-0.3,0.2-0.5,0.5-0.5c0,0,0,0,0,0c4.1,0,7.5,3.4,7.5,7.5c0,4.1-3.4,7.5-7.5,7.5S7.5,19.1,7.5,15
			c0-1.5,0.5-3,1.4-4.3l-0.6-0.5C8,10,8,9.6,8.2,9.4c0.1-0.1,0.2-0.1,0.3-0.2l2.4-0.7c0.3-0.1,0.6,0.1,0.7,0.3c0,0,0,0,0,0
			c0,0.1,0,0.1,0,0.2l-0.3,2.4c0,0.3-0.3,0.5-0.6,0.5c0,0,0,0,0,0c-0.1,0-0.2-0.1-0.3-0.1l-0.6-0.5C9,12.5,8.6,13.7,8.6,15L8.6,15z"
			/>
		<path class="st0" d="M13.7,18.4v-2.6h1.5l1.4,2.6h1.2l-1.5-2.8c0.8-0.3,1.4-1.1,1.3-2c0-1.3-0.9-2.1-2.3-2.1h-2.7v6.9H13.7z
			 M13.7,14.9v-2.5h1.5c0.6-0.1,1.2,0.4,1.3,1c0,0.1,0,0.1,0,0.2c0,0.6-0.4,1.2-1.1,1.2c-0.1,0-0.2,0-0.2,0L13.7,14.9z"/>
	</g>
</g>
</svg>
